log<?xml version="1.0" encoding="UTF-8"?>
<!DOCTYPE svg PUBLIC "-//W3C//DTD SVG 1.1//EN" "http://www.w3.org/Graphics/SVG/1.1/DTD/svg11.dtd">
<svg xmlns="http://www.w3.org/2000/svg" version="1.1" width="599px" height="577px" style="shape-rendering:geometricPrecision; text-rendering:geometricPrecision; image-rendering:optimizeQuality; fill-rule:evenodd; clip-rule:evenodd" xmlns:xlink="http://www.w3.org/1999/xlink">
<g><path style="opacity:0.149" fill="#cdd8d7" d="M 308.5,71.5 C 304.484,70.2575 300.484,70.2575 296.5,71.5C 297.694,70.2227 299.36,69.5561 301.5,69.5C 304.205,69.3161 306.538,69.9827 308.5,71.5 Z"/></g>
<g><path style="opacity:0.999" fill="#020202" d="M 308.5,71.5 C 308.973,72.9063 309.973,73.573 311.5,73.5C 313.241,75.9774 314.741,78.6441 316,81.5C 316.5,90.4938 316.666,99.4938 316.5,108.5C 367.5,108.5 418.5,108.5 469.5,108.5C 477.183,111.351 482.35,116.684 485,124.5C 485.667,206.833 485.667,289.167 485,371.5C 483.127,377.864 479.294,382.531 473.5,385.5C 360.207,386.663 246.873,386.829 133.5,386C 127.333,383.833 123.167,379.667 121,373.5C 120.333,289.833 120.333,206.167 121,122.5C 123.651,115.186 128.818,110.686 136.5,109C 187.166,108.5 237.832,108.333 288.5,108.5C 288.5,99.1667 288.5,89.8333 288.5,80.5C 289.674,79.4863 290.34,78.153 290.5,76.5C 292.167,75.5 293.5,74.1667 294.5,72.5C 294.842,71.6618 295.508,71.3284 296.5,71.5C 300.484,70.2575 304.484,70.2575 308.5,71.5 Z"/></g>
<g><path style="opacity:0.008" fill="#cad4d4" d="M 311.5,73.5 C 309.973,73.573 308.973,72.9063 308.5,71.5C 311.35,70.0719 312.35,70.7386 311.5,73.5 Z"/></g>
<g><path style="opacity:0.38" fill="#adb8b7" d="M 294.5,72.5 C 293.5,74.1667 292.167,75.5 290.5,76.5C 290.833,74.1667 292.167,72.8333 294.5,72.5 Z"/></g>
<g><path style="opacity:0.224" fill="#bdc4c8" d="M 290.5,76.5 C 290.34,78.153 289.674,79.4863 288.5,80.5C 288.229,78.6203 288.896,77.287 290.5,76.5 Z"/></g>
<g><path style="opacity:0.05" fill="#d7e2e3" d="M 311.5,73.5 C 315.534,73.8445 317.201,75.8445 316.5,79.5C 317.025,80.1924 317.692,80.6924 318.5,81C 317.029,84.4714 317.362,87.8047 319.5,91C 318.833,92 318.167,93 317.5,94C 318.833,95.3333 318.833,96.6667 317.5,98C 318.656,100.633 319.656,103.3 320.5,106C 368.833,106.333 417.167,106.667 465.5,107C 467.058,107.21 468.391,107.71 469.5,108.5C 418.5,108.5 367.5,108.5 316.5,108.5C 316.666,99.4938 316.5,90.4938 316,81.5C 314.741,78.6441 313.241,75.9774 311.5,73.5 Z"/></g>
<g><path style="opacity:1" fill="#fbf9f9" d="M 262.5,146.5 C 274.739,145.426 284.906,149.426 293,158.5C 294,160.5 295,162.5 296,164.5C 296.667,222.833 296.667,281.167 296,339.5C 289.542,357.487 276.709,366.153 257.5,365.5C 235.085,363.924 219.918,352.591 212,331.5C 211.077,327.21 210.577,322.877 210.5,318.5C 198.011,314.172 190.178,305.505 187,292.5C 184.614,275.276 190.448,261.609 204.5,251.5C 191.649,228.176 195.315,207.676 215.5,190C 219.721,186.722 224.388,184.222 229.5,182.5C 232.953,163.387 243.953,151.387 262.5,146.5 Z"/></g>
<g><path style="opacity:1" fill="#fcfbfb" d="M 332.5,146.5 C 356.337,147.663 370.67,159.997 375.5,183.5C 398.038,192.546 408.538,209.213 407,233.5C 405.859,240.11 403.359,246.11 399.5,251.5C 420.368,267.305 423.868,286.305 410,308.5C 405.802,313.505 400.636,316.838 394.5,318.5C 393.02,339.967 382.353,354.8 362.5,363C 352.237,365.811 341.904,366.144 331.5,364C 321.396,360.229 314.229,353.396 310,343.5C 308.349,283.878 308.015,224.211 309,164.5C 313.54,154.119 321.373,148.119 332.5,146.5 Z"/></g>
<g><path style="opacity:1" fill="#d14246" d="M 342.5,167.5 C 336.595,166.627 331.595,168.293 327.5,172.5C 326.427,171.749 326.26,170.749 327,169.5C 331.836,165.166 337.003,164.5 342.5,167.5 Z"/></g>
<g><path style="opacity:1" fill="#050303" d="M 261.5,167.5 C 267.689,167.339 273.023,169.339 277.5,173.5C 283.221,184.412 280.888,193.079 270.5,199.5C 269.508,199.328 268.842,199.662 268.5,200.5C 268.167,200.5 267.833,200.5 267.5,200.5C 264.5,200.5 261.5,200.5 258.5,200.5C 258.158,199.662 257.492,199.328 256.5,199.5C 253.375,196.61 250.708,193.277 248.5,189.5C 246.317,178.069 250.65,170.736 261.5,167.5 Z"/></g>
<g><path style="opacity:1" fill="#070404" d="M 342.5,167.5 C 353.689,170.522 358.356,177.855 356.5,189.5C 354.212,193.456 351.212,196.789 347.5,199.5C 346.508,199.328 345.842,199.662 345.5,200.5C 341.434,200.693 337.434,200.36 333.5,199.5C 326.043,194.998 322.876,188.332 324,179.5C 324.959,177.047 326.126,174.714 327.5,172.5C 331.595,168.293 336.595,166.627 342.5,167.5 Z"/></g>
<g><path style="opacity:1" fill="#c43b3b" d="M 277.5,173.5 C 273.023,169.339 267.689,167.339 261.5,167.5C 266.603,164.655 271.603,164.989 276.5,168.5C 277.452,170.045 277.785,171.712 277.5,173.5 Z"/></g>
<g><path style="opacity:1" fill="#e12b3a" d="M 248.5,189.5 C 250.708,193.277 253.375,196.61 256.5,199.5C 251.5,205.167 246.167,210.5 240.5,215.5C 235.06,213.555 229.393,213.055 223.5,214C 221.004,215.666 218.671,217.5 216.5,219.5C 220.041,207.46 228.041,200.626 240.5,199C 242.828,195.484 245.495,192.318 248.5,189.5 Z"/></g>
<g><path style="opacity:1" fill="#dd2739" d="M 356.5,189.5 C 359.03,192.688 361.696,195.855 364.5,199C 376.061,201.072 383.728,207.572 387.5,218.5C 379.826,212.832 371.826,212.165 363.5,216.5C 358.843,210.177 353.51,204.51 347.5,199.5C 351.212,196.789 354.212,193.456 356.5,189.5 Z"/></g>
<g><path style="opacity:1" fill="#fbf5f5" d="M 256.5,199.5 C 257.492,199.328 258.158,199.662 258.5,200.5C 258.5,209.167 258.5,217.833 258.5,226.5C 254.5,226.5 250.5,226.5 246.5,226.5C 245.802,222.103 243.802,218.436 240.5,215.5C 246.167,210.5 251.5,205.167 256.5,199.5 Z"/></g>
<g><path style="opacity:1" fill="#fdf6f7" d="M 347.5,199.5 C 353.51,204.51 358.843,210.177 363.5,216.5C 360.479,219.206 358.479,222.539 357.5,226.5C 353.5,226.5 349.5,226.5 345.5,226.5C 345.5,217.833 345.5,209.167 345.5,200.5C 345.842,199.662 346.508,199.328 347.5,199.5 Z"/></g>
<g><path style="opacity:1" fill="#c51a27" d="M 275.5,200.5 C 276.822,203.768 277.489,207.435 277.5,211.5C 277.167,215.167 276.833,218.833 276.5,222.5C 275.503,215.197 275.169,207.863 275.5,200.5 Z"/></g>
<g><path style="opacity:1" fill="#ca4f53" d="M 258.5,200.5 C 261.5,200.5 264.5,200.5 267.5,200.5C 265.052,201.473 262.385,201.806 259.5,201.5C 259.826,210.017 259.493,218.35 258.5,226.5C 258.5,217.833 258.5,209.167 258.5,200.5 Z"/></g>
<g><path style="opacity:1" fill="#e32337" d="M 267.5,200.5 C 267.833,200.5 268.167,200.5 268.5,200.5C 269.497,216.992 269.83,233.658 269.5,250.5C 266.167,250.5 262.833,250.5 259.5,250.5C 259.815,246.629 259.482,242.962 258.5,239.5C 258.5,238.833 258.167,238.5 257.5,238.5C 255.052,237.527 252.385,237.194 249.5,237.5C 249.227,235.549 249.893,234.049 251.5,233C 249.323,231.814 248.323,229.981 248.5,227.5C 252.042,227.813 255.375,227.479 258.5,226.5C 259.493,218.35 259.826,210.017 259.5,201.5C 262.385,201.806 265.052,201.473 267.5,200.5 Z"/></g>
<g><path style="opacity:1" fill="#c51c2a" d="M 329.5,201.5 C 329.5,208.167 329.5,214.833 329.5,221.5C 328.18,218.572 327.514,215.239 327.5,211.5C 327.514,207.761 328.18,204.428 329.5,201.5 Z"/></g>
<g><path style="opacity:1" fill="#f8f8f8" d="M 159.5,213.5 C 174.963,213.799 179.796,221.133 174,235.5C 163.538,243.346 155.538,241.346 150,229.5C 149.335,221.822 152.502,216.488 159.5,213.5 Z"/></g>
<g><path style="opacity:1" fill="#050303" d="M 240.5,215.5 C 243.802,218.436 245.802,222.103 246.5,226.5C 246.574,234.689 243.24,241.022 236.5,245.5C 218.016,245.7 211.349,237.033 216.5,219.5C 218.671,217.5 221.004,215.666 223.5,214C 229.393,213.055 235.06,213.555 240.5,215.5 Z"/></g>
<g><path style="opacity:1" fill="#be3644" d="M 268.5,200.5 C 268.842,199.662 269.508,199.328 270.5,199.5C 270.5,217.167 270.5,234.833 270.5,252.5C 266.566,251.64 262.566,251.307 258.5,251.5C 258.5,247.5 258.5,243.5 258.5,239.5C 259.482,242.962 259.815,246.629 259.5,250.5C 262.833,250.5 266.167,250.5 269.5,250.5C 269.83,233.658 269.497,216.992 268.5,200.5 Z"/></g>
<g><path style="opacity:1" fill="#070505" d="M 387.5,218.5 C 393.19,230.262 390.19,239.096 378.5,245C 374.848,245.499 371.182,245.665 367.5,245.5C 360.594,241.13 357.261,234.796 357.5,226.5C 358.479,222.539 360.479,219.206 363.5,216.5C 371.826,212.165 379.826,212.832 387.5,218.5 Z"/></g>
<g><path style="opacity:1" fill="#f8f8f8" d="M 436.5,213.5 C 448.053,212.242 454.22,217.242 455,228.5C 452.71,236.898 447.21,240.731 438.5,240C 430.029,236.601 426.862,230.434 429,221.5C 431.028,218.308 433.528,215.641 436.5,213.5 Z"/></g>
<g><path style="opacity:1" fill="#d05e68" d="M 329.5,201.5 C 328.18,204.428 327.514,207.761 327.5,211.5C 327.514,215.239 328.18,218.572 329.5,221.5C 328.791,222.404 327.791,222.737 326.5,222.5C 326.5,215.167 326.5,207.833 326.5,200.5C 327.791,200.263 328.791,200.596 329.5,201.5 Z"/></g>
<g><path style="opacity:1" fill="#d73140" d="M 333.5,199.5 C 337.434,200.36 341.434,200.693 345.5,200.5C 345.5,209.167 345.5,217.833 345.5,226.5C 344.507,218.35 344.174,210.017 344.5,201.5C 341.167,201.5 337.833,201.5 334.5,201.5C 334.334,209.174 334.5,216.841 335,224.5C 335.692,225.025 336.192,225.692 336.5,226.5C 336.899,234.525 336.232,242.525 334.5,250.5C 337.713,250.19 340.713,250.523 343.5,251.5C 340.167,251.5 336.833,251.5 333.5,251.5C 333.5,234.167 333.5,216.833 333.5,199.5 Z"/></g>
<g><path style="opacity:1" fill="#e6263a" d="M 345.5,226.5 C 348.962,227.482 352.629,227.815 356.5,227.5C 356.724,231.179 357.058,234.846 357.5,238.5C 353.5,238.5 349.5,238.5 345.5,238.5C 345.5,242.833 345.5,247.167 345.5,251.5C 344.833,251.5 344.167,251.5 343.5,251.5C 340.713,250.523 337.713,250.19 334.5,250.5C 336.232,242.525 336.899,234.525 336.5,226.5C 336.192,225.692 335.692,225.025 335,224.5C 334.5,216.841 334.334,209.174 334.5,201.5C 337.833,201.5 341.167,201.5 344.5,201.5C 344.174,210.017 344.507,218.35 345.5,226.5 Z"/></g>
<g><path style="opacity:1" fill="#f9bec4" d="M 357.5,238.5 C 357.672,239.492 357.338,240.158 356.5,240.5C 353.375,239.521 350.042,239.187 346.5,239.5C 346.183,243.702 346.517,247.702 347.5,251.5C 347.5,251.833 347.5,252.167 347.5,252.5C 346.508,252.672 345.842,252.338 345.5,251.5C 345.5,247.167 345.5,242.833 345.5,238.5C 349.5,238.5 353.5,238.5 357.5,238.5 Z"/></g>
<g><path style="opacity:1" fill="#fdf8f7" d="M 356.5,240.5 C 353.739,244.35 350.739,248.017 347.5,251.5C 346.517,247.702 346.183,243.702 346.5,239.5C 350.042,239.187 353.375,239.521 356.5,240.5 Z"/></g>
<g><path style="opacity:1" fill="#db2c39" d="M 345.5,226.5 C 349.5,226.5 353.5,226.5 357.5,226.5C 357.261,234.796 360.594,241.13 367.5,245.5C 364.218,250.464 360.885,255.464 357.5,260.5C 364.46,264.781 371.96,266.114 380,264.5C 383.03,264.481 385.863,265.147 388.5,266.5C 385.797,268.11 382.797,269.11 379.5,269.5C 374.683,270.659 371.016,273.326 368.5,277.5C 363.905,276.968 359.571,275.635 355.5,273.5C 357.529,264.58 354.862,257.58 347.5,252.5C 347.5,252.167 347.5,251.833 347.5,251.5C 350.739,248.017 353.739,244.35 356.5,240.5C 357.338,240.158 357.672,239.492 357.5,238.5C 357.058,234.846 356.724,231.179 356.5,227.5C 352.629,227.815 348.962,227.482 345.5,226.5 Z"/></g>
<g><path style="opacity:1" fill="#fbedef" d="M 257.5,238.5 C 258.167,238.5 258.5,238.833 258.5,239.5C 258.5,243.5 258.5,247.5 258.5,251.5C 258.158,252.338 257.492,252.672 256.5,252.5C 253.418,248.016 250.084,243.683 246.5,239.5C 250.107,238.511 253.774,238.177 257.5,238.5 Z"/></g>
<g><path style="opacity:1" fill="#de303e" d="M 246.5,226.5 C 250.5,226.5 254.5,226.5 258.5,226.5C 255.375,227.479 252.042,227.813 248.5,227.5C 248.323,229.981 249.323,231.814 251.5,233C 249.893,234.049 249.227,235.549 249.5,237.5C 252.385,237.194 255.052,237.527 257.5,238.5C 253.774,238.177 250.107,238.511 246.5,239.5C 250.084,243.683 253.418,248.016 256.5,252.5C 248.294,256.916 245.628,263.582 248.5,272.5C 247.883,272.389 247.383,272.056 247,271.5C 246.667,268.5 246.333,265.5 246,262.5C 242.206,263.647 238.373,264.647 234.5,265.5C 238.345,263.588 242.345,261.921 246.5,260.5C 243.141,255.482 239.807,250.482 236.5,245.5C 243.24,241.022 246.574,234.689 246.5,226.5 Z"/></g>
<g><path style="opacity:1" fill="#e14448" d="M 326.5,229.5 C 327.5,229.5 328.5,229.5 329.5,229.5C 329.5,236.5 329.5,243.5 329.5,250.5C 328.5,250.5 327.5,250.5 326.5,250.5C 326.5,243.5 326.5,236.5 326.5,229.5 Z"/></g>
<g><path style="opacity:1" fill="#c61d2d" d="M 275.5,229.5 C 276.821,232.598 277.488,236.098 277.5,240C 277.167,243.5 276.833,247 276.5,250.5C 275.503,243.532 275.17,236.532 275.5,229.5 Z"/></g>
<g><path style="opacity:1" fill="#070303" d="M 258.5,251.5 C 262.566,251.307 266.566,251.64 270.5,252.5C 279.086,256.363 282.253,263.03 280,272.5C 278.683,276.837 276.183,280.17 272.5,282.5C 271.508,282.328 270.842,282.662 270.5,283.5C 269.209,283.263 268.209,283.596 267.5,284.5C 264.5,284.5 261.5,284.5 258.5,284.5C 254.787,281.116 251.121,277.783 247.5,274.5C 247.833,273.833 248.167,273.167 248.5,272.5C 245.628,263.582 248.294,256.916 256.5,252.5C 257.492,252.672 258.158,252.338 258.5,251.5 Z"/></g>
<g><path style="opacity:1" fill="#060303" d="M 333.5,251.5 C 336.833,251.5 340.167,251.5 343.5,251.5C 344.167,251.5 344.833,251.5 345.5,251.5C 345.842,252.338 346.508,252.672 347.5,252.5C 354.862,257.58 357.529,264.58 355.5,273.5C 352.826,277.837 349.493,281.504 345.5,284.5C 341.5,284.5 337.5,284.5 333.5,284.5C 324.624,278.376 321.791,270.043 325,259.5C 327.579,256.479 330.413,253.812 333.5,251.5 Z"/></g>
<g><path style="opacity:1" fill="#e12431" d="M 248.5,272.5 C 248.167,273.167 247.833,273.833 247.5,274.5C 243.777,275.347 240.111,276.347 236.5,277.5C 234.215,275.882 232.215,273.882 230.5,271.5C 229.657,269.827 228.324,268.66 226.5,268C 227.527,267.487 228.527,266.987 229.5,266.5C 231.216,266.371 232.883,266.038 234.5,265.5C 238.373,264.647 242.206,263.647 246,262.5C 246.333,265.5 246.667,268.5 247,271.5C 247.383,272.056 247.883,272.389 248.5,272.5 Z"/></g>
<g><path style="opacity:1" fill="#ca2b35" d="M 229.5,266.5 C 228.527,266.987 227.527,267.487 226.5,268C 228.324,268.66 229.657,269.827 230.5,271.5C 222.126,268.015 214.46,269.015 207.5,274.5C 210.817,268.164 216.151,264.83 223.5,264.5C 225.883,264.361 227.883,265.028 229.5,266.5 Z"/></g>
<g><path style="opacity:1" fill="#ad3136" d="M 388.5,266.5 C 392.718,268.412 395.718,271.412 397.5,275.5C 392.58,270.527 386.58,268.527 379.5,269.5C 382.797,269.11 385.797,268.11 388.5,266.5 Z"/></g>
<g><path style="opacity:1" fill="#060303" d="M 230.5,271.5 C 232.215,273.882 234.215,275.882 236.5,277.5C 236.833,280.167 237.167,282.833 237.5,285.5C 237.5,286.5 237.5,287.5 237.5,288.5C 235.657,290.853 234.323,293.52 233.5,296.5C 231.833,297.5 230.5,298.833 229.5,300.5C 225.915,301.583 222.249,302.249 218.5,302.5C 206.848,299.212 202.348,291.545 205,279.5C 205.374,277.509 206.207,275.842 207.5,274.5C 214.46,269.015 222.126,268.015 230.5,271.5 Z"/></g>
<g><path style="opacity:1" fill="#060303" d="M 379.5,269.5 C 386.58,268.527 392.58,270.527 397.5,275.5C 402.448,284.866 400.781,293.033 392.5,300C 389.978,301.341 387.311,302.174 384.5,302.5C 381.034,301.923 377.701,300.923 374.5,299.5C 373.167,298.833 372.167,297.833 371.5,296.5C 368.744,292.984 367.077,288.984 366.5,284.5C 367.319,282.228 367.985,279.894 368.5,277.5C 371.016,273.326 374.683,270.659 379.5,269.5 Z"/></g>
<g><path style="opacity:1" fill="#f9f2f1" d="M 247.5,274.5 C 251.121,277.783 254.787,281.116 258.5,284.5C 258.5,286.833 258.5,289.167 258.5,291.5C 251.483,289.494 244.483,287.494 237.5,285.5C 237.167,282.833 236.833,280.167 236.5,277.5C 240.111,276.347 243.777,275.347 247.5,274.5 Z"/></g>
<g><path style="opacity:1" fill="#f8f2f2" d="M 355.5,273.5 C 359.571,275.635 363.905,276.968 368.5,277.5C 367.985,279.894 367.319,282.228 366.5,284.5C 359.44,286.681 352.44,289.014 345.5,291.5C 345.5,289.167 345.5,286.833 345.5,284.5C 349.493,281.504 352.826,277.837 355.5,273.5 Z"/></g>
<g><path style="opacity:1" fill="#e1293a" d="M 333.5,284.5 C 337.5,284.5 341.5,284.5 345.5,284.5C 345.5,286.833 345.5,289.167 345.5,291.5C 352.44,289.014 359.44,286.681 366.5,284.5C 367.077,288.984 368.744,292.984 371.5,296.5C 363.178,299.326 354.844,302.159 346.5,305C 345.556,307.719 345.223,310.552 345.5,313.5C 341.5,313.5 337.5,313.5 333.5,313.5C 333.5,303.833 333.5,294.167 333.5,284.5 Z"/></g>
<g><path style="opacity:1" fill="#fcd2d8" d="M 272.5,282.5 C 271.524,293.085 271.191,303.752 271.5,314.5C 271.167,314.5 270.833,314.5 270.5,314.5C 270.5,304.167 270.5,293.833 270.5,283.5C 270.842,282.662 271.508,282.328 272.5,282.5 Z"/></g>
<g><path style="opacity:1" fill="#e3253b" d="M 258.5,284.5 C 261.5,284.5 264.5,284.5 267.5,284.5C 269.472,293.44 270.139,302.773 269.5,312.5C 266.167,312.5 262.833,312.5 259.5,312.5C 259.802,309.941 259.468,307.607 258.5,305.5C 252.015,303.341 245.681,301.008 239.5,298.5C 237.958,297.859 236.624,296.859 235.5,295.5C 236.946,293.382 237.613,291.049 237.5,288.5C 237.5,287.5 237.5,286.5 237.5,285.5C 244.483,287.494 251.483,289.494 258.5,291.5C 258.5,289.167 258.5,286.833 258.5,284.5 Z"/></g>
<g><path style="opacity:1" fill="#c03644" d="M 237.5,288.5 C 237.613,291.049 236.946,293.382 235.5,295.5C 236.624,296.859 237.958,297.859 239.5,298.5C 237.142,298.747 235.142,298.081 233.5,296.5C 234.323,293.52 235.657,290.853 237.5,288.5 Z"/></g>
<g><path style="opacity:1" fill="#faf6f6" d="M 233.5,296.5 C 235.142,298.081 237.142,298.747 239.5,298.5C 245.681,301.008 252.015,303.341 258.5,305.5C 258.5,308.167 258.5,310.833 258.5,313.5C 254.906,315.424 251.906,318.09 249.5,321.5C 245.954,320.728 242.621,319.395 239.5,317.5C 235.903,311.97 232.57,306.304 229.5,300.5C 230.5,298.833 231.833,297.5 233.5,296.5 Z"/></g>
<g><path style="opacity:1" fill="#d9414a" d="M 326.5,288.5 C 327.5,288.5 328.5,288.5 329.5,288.5C 329.5,296.167 329.5,303.833 329.5,311.5C 328.5,311.5 327.5,311.5 326.5,311.5C 326.5,303.833 326.5,296.167 326.5,288.5 Z"/></g>
<g><path style="opacity:1" fill="#f9f4f5" d="M 371.5,296.5 C 372.167,297.833 373.167,298.833 374.5,299.5C 371.271,304.955 368.271,310.621 365.5,316.5C 362.188,318.99 358.522,320.657 354.5,321.5C 352.094,318.09 349.094,315.424 345.5,313.5C 345.223,310.552 345.556,307.719 346.5,305C 354.844,302.159 363.178,299.326 371.5,296.5 Z"/></g>
<g><path style="opacity:1" fill="#cf1e2e" d="M 275.5,287.5 C 276.824,291.107 277.491,295.107 277.5,299.5C 277.167,303.5 276.833,307.5 276.5,311.5C 275.502,303.528 275.169,295.528 275.5,287.5 Z"/></g>
<g><path style="opacity:1" fill="#bf323f" d="M 267.5,284.5 C 268.209,283.596 269.209,283.263 270.5,283.5C 270.5,293.833 270.5,304.167 270.5,314.5C 266.548,313.728 262.548,313.395 258.5,313.5C 258.5,310.833 258.5,308.167 258.5,305.5C 259.468,307.607 259.802,309.941 259.5,312.5C 262.833,312.5 266.167,312.5 269.5,312.5C 270.139,302.773 269.472,293.44 267.5,284.5 Z"/></g>
<g><path style="opacity:1" fill="#060404" d="M 258.5,313.5 C 262.548,313.395 266.548,313.728 270.5,314.5C 270.833,314.5 271.167,314.5 271.5,314.5C 282.698,323.14 283.364,332.64 273.5,343C 269.911,345.631 265.911,346.797 261.5,346.5C 260.791,345.596 259.791,345.263 258.5,345.5C 248.387,340.162 245.387,332.162 249.5,321.5C 251.906,318.09 254.906,315.424 258.5,313.5 Z"/></g>
<g><path style="opacity:1" fill="#060303" d="M 333.5,313.5 C 337.5,313.5 341.5,313.5 345.5,313.5C 349.094,315.424 352.094,318.09 354.5,321.5C 357.485,329.41 356.152,336.577 350.5,343C 348.35,344.411 346.016,345.245 343.5,345.5C 329.775,345.941 323.275,339.274 324,325.5C 325.892,320.447 329.058,316.447 333.5,313.5 Z"/></g>
<g><path style="opacity:1" fill="#e12a3b" d="M 374.5,299.5 C 377.701,300.923 381.034,301.923 384.5,302.5C 380.907,309.86 378.074,317.526 376,325.5C 370.708,338.292 361.208,345.626 347.5,347.5C 345.667,347.415 344.334,346.748 343.5,345.5C 346.016,345.245 348.35,344.411 350.5,343C 356.152,336.577 357.485,329.41 354.5,321.5C 358.522,320.657 362.188,318.99 365.5,316.5C 368.271,310.621 371.271,304.955 374.5,299.5 Z"/></g>
<g><path style="opacity:1" fill="#e12735" d="M 229.5,300.5 C 232.57,306.304 235.903,311.97 239.5,317.5C 242.621,319.395 245.954,320.728 249.5,321.5C 245.387,332.162 248.387,340.162 258.5,345.5C 256.735,346.461 254.735,346.795 252.5,346.5C 248.638,345.572 244.971,344.072 241.5,342C 238.667,339.167 235.833,336.333 233,333.5C 228.629,322.855 223.795,312.521 218.5,302.5C 222.249,302.249 225.915,301.583 229.5,300.5 Z"/></g>
<g><path style="opacity:0.161" fill="#c0c7c7" d="M 477.5,385.5 C 476.167,385.5 474.833,385.5 473.5,385.5C 479.294,382.531 483.127,377.864 485,371.5C 485.667,289.167 485.667,206.833 485,124.5C 482.35,116.684 477.183,111.351 469.5,108.5C 470.222,108.082 470.722,107.416 471,106.5C 478.724,109.222 484.224,114.389 487.5,122C 486.686,148.667 486.353,175.334 486.5,202C 486.667,205.167 486.833,208.333 487,211.5C 487.692,212.025 488.192,212.692 488.5,213.5C 487.738,217.111 487.238,220.778 487,224.5C 486.667,273.833 486.333,323.167 486,372.5C 485.279,378.259 482.446,382.592 477.5,385.5 Z"/></g>
<g><path style="opacity:1" fill="#d46e73" d="M 258.5,345.5 C 259.791,345.263 260.791,345.596 261.5,346.5C 258.5,347.833 255.5,347.833 252.5,346.5C 254.735,346.795 256.735,346.461 258.5,345.5 Z"/></g>
<g><path style="opacity:0.976" fill="#cad4d5" d="M 288.5,80.5 C 288.5,89.8333 288.5,99.1667 288.5,108.5C 237.832,108.333 187.166,108.5 136.5,109C 128.818,110.686 123.651,115.186 121,122.5C 120.333,206.167 120.333,289.833 121,373.5C 123.167,379.667 127.333,383.833 133.5,386C 246.873,386.829 360.207,386.663 473.5,385.5C 474.833,385.5 476.167,385.5 477.5,385.5C 476.48,386.954 475.313,387.287 474,386.5C 472.242,387.469 471.742,388.636 472.5,390C 471.167,390.667 469.833,391.333 468.5,392C 469.973,392.71 470.64,393.876 470.5,395.5C 473.443,395.647 476.276,396.313 479,397.5C 481.571,396.75 483.738,395.417 485.5,393.5C 484.233,397.257 481.566,399.424 477.5,400C 360.333,400.833 243.333,400.666 126.5,399.5C 128.17,399.249 129.67,398.582 131,397.5C 132.062,398.097 133.228,398.43 134.5,398.5C 141.375,396.457 148.375,394.957 155.5,394C 151.853,393.226 148.186,392.559 144.5,392C 143.833,391.333 143.167,390.667 142.5,390C 131.976,389.596 124.142,384.762 119,375.5C 118.333,291.167 118.333,206.833 119,122.5C 119.764,118.645 121.264,115.145 123.5,112C 126.822,109.52 130.489,107.686 134.5,106.5C 135.442,106.608 136.275,106.941 137,107.5C 185.763,106.669 234.596,106.169 283.5,106C 284.5,105.5 285.5,105 286.5,104.5C 287.167,96.3433 287.833,88.3433 288.5,80.5 Z"/></g>
<g><path style="opacity:0.239" fill="#c2cdcf" d="M 118.5,391.5 C 115.167,390.167 111.833,390.167 108.5,391.5C 108.611,390.883 108.944,390.383 109.5,390C 112.426,389.782 115.26,389.282 118,388.5C 118.483,389.448 118.649,390.448 118.5,391.5 Z"/></g>
<g><path style="opacity:0.999" fill="#030303" d="M 118.5,391.5 C 119.026,393.23 120.026,394.564 121.5,395.5C 122.129,397.997 123.796,399.33 126.5,399.5C 243.333,400.666 360.333,400.833 477.5,400C 481.566,399.424 484.233,397.257 485.5,393.5C 485.5,391.5 486.5,390.5 488.5,390.5C 493.739,389.959 497.572,391.959 500,396.5C 500.663,401.537 500.496,406.537 499.5,411.5C 497.844,413.46 496.177,415.46 494.5,417.5C 491.314,418.597 488.314,419.93 485.5,421.5C 448.5,421.5 411.5,421.5 374.5,421.5C 373.167,421.5 371.833,421.5 370.5,421.5C 378.882,444.668 388.215,467.335 398.5,489.5C 400.547,489.489 402.547,489.156 404.5,488.5C 412.472,489.272 420.472,489.772 428.5,490C 429.416,490.278 430.082,490.778 430.5,491.5C 430.833,492.5 431.5,493.167 432.5,493.5C 433.006,497.007 432.34,500.174 430.5,503C 345.167,503.5 259.834,503.667 174.5,503.5C 174.167,503.5 173.833,503.5 173.5,503.5C 171.701,500.495 171.034,497.162 171.5,493.5C 172.833,492.833 173.833,491.833 174.5,490.5C 184.385,488.926 194.385,488.593 204.5,489.5C 207.595,489.374 209.428,487.707 210,484.5C 218.471,463.582 226.637,442.582 234.5,421.5C 233.167,421.5 231.833,421.5 230.5,421.5C 193.098,421.548 155.765,421.548 118.5,421.5C 117.07,420.463 115.403,419.796 113.5,419.5C 113.027,418.094 112.027,417.427 110.5,417.5C 109.5,415.833 108.167,414.5 106.5,413.5C 101.908,405.589 102.575,398.256 108.5,391.5C 111.833,390.167 115.167,390.167 118.5,391.5 Z M 319.5,421.5 C 322.167,421.5 324.833,421.5 327.5,421.5C 332.139,422.195 336.805,423.195 341.5,424.5C 342.833,427.167 342.833,429.833 341.5,432.5C 342.5,432.5 343.5,432.5 344.5,432.5C 344.579,433.93 344.246,435.264 343.5,436.5C 344.325,437.386 345.325,437.719 346.5,437.5C 346.579,438.93 346.246,440.264 345.5,441.5C 348.174,442.499 348.841,444.166 347.5,446.5C 348.737,447.281 349.737,448.281 350.5,449.5C 349.754,450.736 349.421,452.07 349.5,453.5C 352.487,453.422 353.153,454.589 351.5,457C 351.808,458.459 352.475,459.626 353.5,460.5C 353.351,461.552 353.517,462.552 354,463.5C 354.667,462.167 355.333,462.167 356,463.5C 356.617,464.449 356.451,465.282 355.5,466C 358.055,467.258 358.722,469.091 357.5,471.5C 358.737,472.281 359.737,473.281 360.5,474.5C 359.572,475.768 359.405,477.101 360,478.5C 360.333,478.167 360.667,477.833 361,477.5C 362.318,480.477 363.818,483.31 365.5,486C 364.027,486.71 363.36,487.876 363.5,489.5C 348.833,488.167 334.167,488.167 319.5,489.5C 318.892,488.2 318.225,486.867 317.5,485.5C 317.872,474.658 317.872,463.658 317.5,452.5C 317.524,441.94 318.191,431.606 319.5,421.5 Z M 257.5,489.5 C 251.742,489.015 246.075,489.015 240.5,489.5C 240.461,488.417 240.127,487.417 239.5,486.5C 243.902,476.288 247.902,465.955 251.5,455.5C 256.262,444.799 260.928,433.966 265.5,423C 272.826,422.5 280.159,422.334 287.5,422.5C 287.833,444.177 287.5,465.844 286.5,487.5C 276.705,488.143 267.038,488.81 257.5,489.5 Z"/></g>
<g><path style="opacity:0.02" fill="#b7c2c3" d="M 118.5,391.5 C 120.446,392.035 121.446,393.368 121.5,395.5C 120.026,394.564 119.026,393.23 118.5,391.5 Z"/></g>
<g><path style="opacity:0.004" fill="#cfdbdf" d="M 122.5,394.5 C 123.833,395.167 123.833,395.167 122.5,394.5 Z"/></g>
<g><path style="opacity:0.01" fill="#cedddc" d="M 125.5,397.5 C 125.897,396.475 126.563,396.308 127.5,397C 126.906,397.464 126.239,397.631 125.5,397.5 Z"/></g>
<g><path style="opacity:0.004" fill="#b1bbbc" d="M 121.5,395.5 C 121.833,395.5 122.167,395.5 122.5,395.5C 122.973,396.906 123.973,397.573 125.5,397.5C 125.833,398.167 126.167,398.833 126.5,399.5C 123.796,399.33 122.129,397.997 121.5,395.5 Z"/></g>
<g><path style="opacity:0.024" fill="#b6c1c2" d="M 488.5,390.5 C 490.628,389.371 492.961,389.204 495.5,390C 502.302,393.278 504.469,399.111 502,407.5C 501.392,409.066 500.558,410.4 499.5,411.5C 500.496,406.537 500.663,401.537 500,396.5C 497.572,391.959 493.739,389.959 488.5,390.5 Z"/></g>
<g><path style="opacity:0.125" fill="#c7d2d3" d="M 108.5,391.5 C 102.575,398.256 101.908,405.589 106.5,413.5C 105.503,413.53 104.836,413.03 104.5,412C 101.555,405.3 101.888,398.8 105.5,392.5C 106.325,391.614 107.325,391.281 108.5,391.5 Z"/></g>
<g><path style="opacity:0.004" fill="#c4d0d0" d="M 106.5,413.5 C 108.167,414.5 109.5,415.833 110.5,417.5C 108.167,417.167 106.833,415.833 106.5,413.5 Z"/></g>
<g><path style="opacity:0.008" fill="#c5cfcf" d="M 499.5,411.5 C 499.228,414.732 497.562,416.732 494.5,417.5C 496.177,415.46 497.844,413.46 499.5,411.5 Z"/></g>
<g><path style="opacity:0.165" fill="#b0b6b8" d="M 110.5,417.5 C 112.027,417.427 113.027,418.094 113.5,419.5C 111.973,419.573 110.973,418.906 110.5,417.5 Z"/></g>
<g><path style="opacity:0.145" fill="#b1b9b9" d="M 494.5,417.5 C 492.165,420.165 489.165,421.498 485.5,421.5C 488.314,419.93 491.314,418.597 494.5,417.5 Z"/></g>
<g><path style="opacity:0.02" fill="#cad3d2" d="M 113.5,419.5 C 115.403,419.796 117.07,420.463 118.5,421.5C 116.302,421.88 114.635,421.213 113.5,419.5 Z"/></g>
<g><path style="opacity:0.098" fill="#c7cecf" d="M 257.5,489.5 C 267.038,488.81 276.705,488.143 286.5,487.5C 287.5,465.844 287.833,444.177 287.5,422.5C 280.159,422.334 272.826,422.5 265.5,423C 260.928,433.966 256.262,444.799 251.5,455.5C 255.13,444.072 259.463,432.905 264.5,422C 272.493,421.5 280.493,421.334 288.5,421.5C 288.5,444.167 288.5,466.833 288.5,489.5C 278.167,489.5 267.833,489.5 257.5,489.5 Z"/></g>
<g><path style="opacity:0.021" fill="#cdd5d5" d="M 327.5,421.5 C 332.032,421.182 336.366,421.515 340.5,422.5C 343.648,426.923 345.648,431.923 346.5,437.5C 345.325,437.719 344.325,437.386 343.5,436.5C 344.246,435.264 344.579,433.93 344.5,432.5C 343.5,432.5 342.5,432.5 341.5,432.5C 342.833,429.833 342.833,427.167 341.5,424.5C 336.805,423.195 332.139,422.195 327.5,421.5 Z"/></g>
<g><path style="opacity:0.009" fill="#ccd7d8" d="M 230.5,421.5 C 231.833,421.5 233.167,421.5 234.5,421.5C 226.637,442.582 218.471,463.582 210,484.5C 209.428,487.707 207.595,489.374 204.5,489.5C 206.159,488.166 207.492,486.499 208.5,484.5C 208.167,483.833 207.833,483.167 207.5,482.5C 208.204,480.899 209.371,479.565 211,478.5C 211.684,477.216 211.517,476.049 210.5,475C 212.776,473.97 213.443,472.47 212.5,470.5C 214.385,469.803 214.718,468.803 213.5,467.5C 215.124,464.746 216.791,461.913 218.5,459C 218.043,458.586 217.709,458.086 217.5,457.5C 220.186,450.406 223.019,443.406 226,436.5C 226.925,435.953 227.758,435.287 228.5,434.5C 228.306,432.93 228.306,431.43 228.5,430C 229.158,428.095 230.325,426.595 232,425.5C 232.484,423.807 231.984,422.473 230.5,421.5 Z"/></g>
<g><path style="opacity:0.169" fill="#e1e9e9" d="M 319.5,421.5 C 318.191,431.606 317.524,441.94 317.5,452.5C 317.872,463.658 317.872,474.658 317.5,485.5C 318.225,486.867 318.892,488.2 319.5,489.5C 318.5,489.5 317.5,489.5 316.5,489.5C 316.5,466.833 316.5,444.167 316.5,421.5C 317.5,421.5 318.5,421.5 319.5,421.5 Z"/></g>
<g><path style="opacity:0.004" fill="#ced7d8" d="M 346.5,437.5 C 353.774,454.474 360.774,471.641 367.5,489C 366.207,489.49 364.873,489.657 363.5,489.5C 363.36,487.876 364.027,486.71 365.5,486C 363.818,483.31 362.318,480.477 361,477.5C 360.667,477.833 360.333,478.167 360,478.5C 359.405,477.101 359.572,475.768 360.5,474.5C 359.737,473.281 358.737,472.281 357.5,471.5C 358.722,469.091 358.055,467.258 355.5,466C 356.451,465.282 356.617,464.449 356,463.5C 355.333,462.167 354.667,462.167 354,463.5C 353.517,462.552 353.351,461.552 353.5,460.5C 352.475,459.626 351.808,458.459 351.5,457C 353.153,454.589 352.487,453.422 349.5,453.5C 349.421,452.07 349.754,450.736 350.5,449.5C 349.737,448.281 348.737,447.281 347.5,446.5C 348.841,444.166 348.174,442.499 345.5,441.5C 346.246,440.264 346.579,438.93 346.5,437.5 Z"/></g>
<g><path style="opacity:0.051" fill="#c6cfcf" d="M 251.5,455.5 C 247.902,465.955 243.902,476.288 239.5,486.5C 240.127,487.417 240.461,488.417 240.5,489.5C 239.5,489.5 238.5,489.5 237.5,489.5C 239.986,482.522 242.486,475.522 245,468.5C 247.097,463.984 249.263,459.65 251.5,455.5 Z"/></g>
<g><path style="opacity:0.013" fill="#ced9d9" d="M 374.5,421.5 C 372.213,423.767 372.38,425.434 375,426.5C 382.187,445.195 389.687,463.862 397.5,482.5C 397.291,483.086 396.957,483.586 396.5,484C 399.094,485.32 399.76,487.153 398.5,489.5C 388.215,467.335 378.882,444.668 370.5,421.5C 371.833,421.5 373.167,421.5 374.5,421.5 Z"/></g>
<g><path style="opacity:0.059" fill="#bbc5c7" d="M 430.5,491.5 C 431.833,491.5 432.5,492.167 432.5,493.5C 431.5,493.167 430.833,492.5 430.5,491.5 Z"/></g>
<g><path style="opacity:0.251" fill="#acb4b5" d="M 174.5,490.5 C 173.833,491.833 172.833,492.833 171.5,493.5C 171.5,491.5 172.5,490.5 174.5,490.5 Z"/></g>
<g><path style="opacity:0.994" fill="#92acb0" d="M 171.5,493.5 C 171.034,497.162 171.701,500.495 173.5,503.5C 169.167,503.5 164.833,503.5 160.5,503.5C 144.839,502.953 129.172,502.619 113.5,502.5C 113.042,499.606 113.709,497.106 115.5,495C 134.415,494.394 153.082,493.894 171.5,493.5 Z"/></g>
<g><path style="opacity:0.503" fill="#c6d3d7" d="M 160.5,503.5 C 164.833,503.5 169.167,503.5 173.5,503.5C 173.833,503.5 174.167,503.5 174.5,503.5C 171.014,504.533 167.347,505.367 163.5,506C 160.914,508.494 160.914,510.994 163.5,513.5C 162.504,513.586 161.671,513.252 161,512.5C 160.885,509.366 160.718,506.366 160.5,503.5 Z"/></g>
<g><path style="opacity:0.997" fill="#8ba5aa" d="M 432.5,493.5 C 452.613,493.414 472.446,494.081 492,495.5C 492.758,497.769 492.591,499.936 491.5,502C 476.945,502.589 462.611,503.255 448.5,504C 445.363,506.632 441.696,508.298 437.5,509C 436.62,510.356 436.286,511.856 436.5,513.5C 423.829,513.667 411.162,513.5 398.5,513C 403.913,512.587 404.413,511.42 400,509.5C 393.887,511.432 387.72,512.932 381.5,514C 375.319,514.172 369.319,514.672 363.5,515.5C 296.661,516.377 229.995,515.71 163.5,513.5C 160.914,510.994 160.914,508.494 163.5,506C 167.347,505.367 171.014,504.533 174.5,503.5C 259.834,503.667 345.167,503.5 430.5,503C 432.34,500.174 433.006,497.007 432.5,493.5 Z"/></g>
<g><path style="opacity:0.904" fill="#a4bcc0" d="M 436.5,513.5 C 412.346,514.881 388.013,515.548 363.5,515.5C 369.319,514.672 375.319,514.172 381.5,514C 387.72,512.932 393.887,511.432 400,509.5C 404.413,511.42 403.913,512.587 398.5,513C 411.162,513.5 423.829,513.667 436.5,513.5 Z"/></g>
</svg>
