<svg version="1.1" id="Layer_1" xmlns="http://www.w3.org/2000/svg" xmlns:xlink="http://www.w3.org/1999/xlink" x="0px" y="0px"
	 width="100%" viewBox="0 0 400 400" enable-background="new 0 0 400 400" xml:space="preserve">
<path fill="#000000" opacity="1.000000" stroke="none" 
	d="
M338.306732,214.000137 
	C338.298279,227.496979 338.332001,240.494019 338.268677,253.490585 
	C338.216492,264.206635 332.657562,269.927734 321.945953,269.935883 
	C248.297287,269.991913 174.648544,269.996887 100.999870,269.952118 
	C89.173927,269.944916 83.874931,264.506989 83.874504,252.780121 
	C83.872574,199.959671 83.881454,147.139206 83.910736,94.318764 
	C83.918045,81.131447 88.395119,76.687408 101.616737,76.608253 
	C131.926331,76.426804 162.235977,76.254288 192.545593,76.079071 
	C200.653625,76.032196 200.653076,76.033722 200.670151,68.158257 
	C200.675568,65.658913 200.591644,63.155132 200.710754,60.661125 
	C201.011383,54.366474 204.817917,50.085186 210.280914,49.765652 
	C215.276382,49.473465 219.853073,53.331337 220.773651,59.234482 
	C221.333191,62.822590 221.378235,66.560394 221.110153,70.190765 
	C220.763504,74.885010 222.721863,76.206894 227.193008,76.181641 
	C253.685669,76.031998 280.179596,76.074677 306.673035,76.119385 
	C312.166077,76.128654 317.658203,76.436188 323.151520,76.576149 
	C332.621399,76.817436 338.261505,82.465958 338.275269,92.030319 
	C338.322021,124.522354 338.295410,157.014496 338.298004,189.506592 
	C338.298645,197.504440 338.303802,205.502274 338.306732,214.000137 
M156.615097,243.876938 
	C162.513962,249.958160 169.617950,253.406342 178.086395,254.463654 
	C192.350723,256.244598 205.821533,245.888062 205.868835,232.385071 
	C206.000107,194.916138 205.890701,157.446426 205.957275,119.977165 
	C205.968658,113.563728 202.894730,109.280525 197.508240,106.361534 
	C183.954315,99.016502 166.481674,107.437279 162.443222,123.487381 
	C161.581329,126.912773 160.109589,128.698364 156.847565,130.192978 
	C140.897415,137.501129 133.437653,157.355652 141.281876,171.688339 
	C143.196411,175.186523 142.990784,176.867142 139.894485,179.426315 
	C126.728767,190.308228 128.598785,211.884552 143.394501,220.176498 
	C146.212570,221.755814 147.525589,223.597168 147.973343,226.607101 
	C148.927704,233.022720 151.439041,238.739655 156.615097,243.876938 
M215.335617,224.467789 
	C215.336517,226.632874 215.329620,228.798004 215.339615,230.963058 
	C215.389420,241.749985 222.683792,251.027908 233.064667,253.514557 
	C248.586731,257.232727 264.911865,249.742310 270.951111,234.866348 
	C274.019318,227.308655 277.428009,221.086975 283.719635,215.342209 
	C294.474213,205.522400 292.557861,188.943695 281.274719,179.141876 
	C279.661285,177.740280 276.988678,176.837967 278.824036,173.628693 
	C289.497162,154.965958 278.600525,136.047958 263.827911,129.921036 
	C261.182526,128.823853 260.200623,127.125595 259.562866,124.432983 
	C257.330536,115.008133 251.605728,108.205467 242.383316,105.233696 
	C227.568436,100.459854 214.716125,108.593338 215.092621,124.056900 
	C215.899063,157.179611 215.336868,190.335617 215.335617,224.467789 
M114.493355,149.989929 
	C109.966393,150.268158 106.964172,152.399811 106.212662,157.044144 
	C105.604881,160.800201 106.552208,163.971817 110.120316,165.933792 
	C113.525818,167.806381 116.861702,167.571060 119.921013,165.267242 
	C122.627831,163.228867 124.022942,160.377457 123.311852,156.995758 
	C122.425323,152.779739 119.575081,150.500854 114.493355,149.989929 
M314.350006,153.319321 
	C310.129272,149.674393 305.503632,148.862686 302.220642,151.541122 
	C299.186066,154.016907 297.648773,157.227753 299.133514,161.243896 
	C300.853455,165.896225 305.792480,168.137756 310.568665,166.474243 
	C315.249542,164.843887 316.872620,160.020630 314.350006,153.319321 
z"/>
<path fill="#000000" opacity="1.000000" stroke="none" 
	d="
M259.204346,295.723450 
	C264.710815,309.817627 270.225067,323.563751 275.659332,337.341431 
	C276.589813,339.700500 278.100952,340.665283 280.601593,340.617401 
	C285.263824,340.528076 289.929474,340.633606 294.593506,340.615356 
	C298.360443,340.600616 301.570312,341.937225 301.669342,345.981750 
	C301.775177,350.302765 298.298218,351.182587 294.638397,351.180420 
	C272.150330,351.167114 249.662247,351.150970 227.174179,351.153961 
	C194.691315,351.158295 162.208450,351.178619 129.725586,351.189972 
	C128.226456,351.190491 126.726570,351.195618 125.228325,351.153137 
	C121.945518,351.060059 119.740364,349.669098 119.713310,346.105011 
	C119.687073,342.649658 121.719368,340.895172 124.993103,340.706238 
	C130.310364,340.399353 135.637222,340.198975 140.962555,340.117065 
	C143.507996,340.077911 145.382431,339.570496 146.434357,336.869995 
	C151.570038,323.685669 156.842514,310.554626 162.045639,297.396484 
	C162.280777,296.801819 162.312683,296.126831 162.433289,295.519196 
	C160.800568,293.523224 158.648712,294.255890 156.770859,294.251343 
	C134.282837,294.196777 111.794571,294.249725 89.306557,294.195526 
	C80.550232,294.174438 74.636383,290.041321 73.039299,283.023560 
	C72.200691,279.338654 72.943581,275.949738 75.862740,273.475098 
	C78.570442,271.179688 82.035835,270.462219 84.182373,273.723297 
	C87.009712,278.018677 90.922096,278.011383 95.134521,278.012878 
	C136.112900,278.027527 177.091263,278.075989 218.069641,278.072693 
	C254.550369,278.069733 291.031128,277.987427 327.511810,278.016388 
	C331.696625,278.019714 335.196747,277.445587 338.013184,273.706207 
	C340.471893,270.441864 344.759094,271.257233 347.220367,274.863159 
	C350.896637,280.249115 348.517456,288.413330 342.185516,291.948639 
	C338.897064,293.784668 335.312805,294.228271 331.573608,294.218353 
	C308.919067,294.158295 286.264343,294.163940 263.609802,294.214508 
	C262.105530,294.217865 260.206390,293.324127 259.204346,295.723450 
M247.500427,319.921173 
	C244.609039,312.648285 241.772690,305.352844 238.802490,298.112305 
	C237.367920,294.615204 224.610748,292.272522 222.045792,295.027802 
	C221.453827,295.663696 221.214584,296.845490 221.210114,297.777985 
	C221.147751,310.773193 221.150177,323.768799 221.149597,336.764282 
	C221.149521,338.502319 221.316650,340.410278 223.565857,340.430389 
	C233.816559,340.522125 244.068542,340.470642 255.386581,340.470642 
	C252.587418,333.234619 250.155167,326.947144 247.500427,319.921173 
M200.696487,330.403198 
	C200.698990,321.594025 200.747070,312.784607 200.692474,303.975769 
	C200.623825,292.900055 202.050262,294.533508 190.811371,294.129974 
	C186.514252,293.975708 184.239487,295.296417 182.659027,299.431213 
	C177.856003,311.996979 172.614792,324.395020 167.585159,336.874847 
	C167.181824,337.875580 166.301910,338.924042 167.214813,340.099976 
	C175.674652,340.099976 184.109024,340.121246 192.543228,340.093872 
	C200.703705,340.067413 200.703644,340.045441 200.699219,331.862549 
	C200.699127,331.696350 200.698410,331.530121 200.696487,330.403198 
z"/>
<path fill="#000000" opacity="1.000000" stroke="none" 
	d="
M144.481628,206.287445 
	C140.859344,200.408508 141.952438,195.137375 145.473953,190.135971 
	C148.948700,185.201004 153.882706,183.803787 159.568375,185.013641 
	C163.931519,185.942093 166.971100,182.668686 171.474350,182.467529 
	C168.341782,176.900070 166.451324,172.178909 159.186462,171.711060 
	C151.694626,171.228592 147.542923,163.252502 149.845535,155.954468 
	C152.360123,147.984573 156.694305,141.731216 165.361008,139.147217 
	C170.001572,137.763657 172.444260,134.047089 172.682571,128.997147 
	C173.065842,120.875519 180.246735,114.866234 188.275162,115.803116 
	C192.887314,116.341331 196.967834,123.657784 196.105850,130.022842 
	C195.743378,132.699478 195.016052,135.563370 192.849396,137.135086 
	C189.309982,139.702606 189.196823,143.068863 189.245636,146.827484 
	C189.349396,154.815033 189.303970,162.805695 189.215897,170.793930 
	C189.185028,173.593933 189.811569,175.716995 192.127853,177.743942 
	C197.828918,182.732895 197.841370,191.221481 192.111496,196.174637 
	C189.762894,198.204880 189.095886,200.275177 189.225571,203.083389 
	C189.356003,205.907425 189.378418,208.746124 189.254822,211.569946 
	C189.075348,215.670044 189.855453,218.921143 193.121185,222.164368 
	C199.285187,228.285950 195.918411,238.548416 187.391083,241.294220 
	C176.962631,244.652176 166.531021,240.247574 160.928223,229.849075 
	C158.963272,226.202255 157.497116,222.277512 155.930237,218.427979 
	C154.401642,214.672455 152.771225,211.219727 148.381805,209.849197 
	C146.955551,209.403885 145.917709,207.714569 144.481628,206.287445 
M164.661148,208.303497 
	C163.212051,208.209198 161.870209,208.434875 161.764267,210.209839 
	C161.571777,213.434799 168.644028,222.115952 171.938416,222.824112 
	C173.994080,223.265991 179.257568,219.479065 179.750900,217.119125 
	C180.420456,213.916245 178.453140,212.662430 175.807663,211.843292 
	C172.317261,210.762543 168.862473,209.566681 164.661148,208.303497 
M170.651627,153.232758 
	C171.314194,154.387329 171.844284,155.648651 172.669205,156.672394 
	C174.036041,158.368698 175.999146,157.837830 177.783875,157.627457 
	C179.164230,157.464737 179.761429,156.418427 179.756638,155.140106 
	C179.739548,150.582443 180.367172,145.988007 179.120102,139.661041 
	C175.707962,143.461029 173.190643,146.292236 170.639175,149.092285 
	C169.617950,150.213028 169.260101,151.345657 170.651627,153.232758 
M168.657028,199.038864 
	C172.051849,200.263550 175.328384,201.889420 178.978439,202.329361 
	C179.684052,198.670853 174.833038,192.051544 171.735153,192.532196 
	C169.720581,192.844757 167.158997,193.003296 166.159897,195.241852 
	C165.498596,196.723495 166.332565,198.144638 168.657028,199.038864 
M178.966522,167.882629 
	C177.426666,167.344391 175.871262,166.714813 174.598755,168.686768 
	C175.582794,171.068787 176.892349,173.174850 179.216522,174.881012 
	C180.196075,172.474243 180.319687,170.452255 178.966522,167.882629 
z"/>
<path fill="#000000" opacity="1.000000" stroke="none" 
	d="
M191.832306,208.386536 
	C191.947479,206.883774 192.059036,205.775574 192.170609,204.667358 
	C192.616089,204.663025 193.061554,204.658707 193.507034,204.654373 
	C194.176865,208.100082 194.489349,211.559967 192.853882,216.012421 
	C191.362274,213.179611 192.021271,210.910934 191.832306,208.386536 
z"/>
<path fill="#000000" opacity="1.000000" stroke="none" 
	d="
M241.154602,117.543343 
	C246.446915,119.966667 248.698898,124.175697 248.944199,129.255081 
	C249.208527,134.728531 252.115265,137.992950 256.834930,139.558304 
	C265.317078,142.371582 269.843140,148.298630 271.799591,156.706085 
	C273.454132,163.816101 269.150757,171.583023 261.972839,171.837601 
	C254.840347,172.090546 253.115219,176.926056 250.110214,181.682663 
	C254.077377,184.048462 257.940491,185.064713 262.209961,184.614899 
	C270.409454,183.751083 276.539093,187.860092 278.791443,195.676559 
	C280.648041,202.119431 277.770203,207.718628 270.388031,211.107300 
	C266.966705,212.677795 266.416534,215.812241 265.286743,218.645523 
	C263.260101,223.728027 261.961151,229.097000 258.565155,233.592728 
	C252.517426,241.598877 241.832764,244.626724 232.591599,240.803833 
	C224.711807,237.544113 222.599915,226.716187 228.991714,220.979630 
	C231.290543,218.916458 231.930969,216.818390 231.806427,214.013077 
	C231.673676,211.022629 231.605255,208.010132 231.813202,205.028488 
	C232.092056,201.030167 231.309464,197.901291 228.119904,194.858963 
	C223.258087,190.221558 223.791901,182.756927 228.955643,177.930496 
	C231.148911,175.880478 231.905731,173.864197 231.851013,170.993347 
	C231.689209,162.505859 231.696503,154.012894 231.795319,145.523880 
	C231.831879,142.384003 231.126526,139.979141 228.753662,137.563995 
	C223.672989,132.392807 223.717834,123.588921 228.697052,118.407425 
	C232.227112,114.733948 236.587082,115.704803 241.154602,117.543343 
M244.077332,220.246353 
	C247.972687,223.783356 250.709229,224.085449 253.645050,220.535767 
	C255.950378,217.748383 257.831055,214.495834 259.327271,211.190521 
	C260.458221,208.692123 259.110443,207.266205 256.304871,208.180954 
	C252.352966,209.469452 248.383713,210.746033 244.542831,212.322372 
	C240.406433,214.019989 240.212769,216.057083 244.077332,220.246353 
M241.414963,155.779648 
	C243.144348,159.090515 246.319839,158.587234 248.057373,156.884537 
	C249.897049,155.081696 253.122437,152.451935 250.862167,149.252029 
	C248.560989,145.994232 245.839020,142.833786 241.709641,140.694244 
	C240.846283,145.732498 241.401016,150.344818 241.414963,155.779648 
M252.315323,198.970581 
	C254.104294,198.214081 255.401443,197.114441 255.165253,194.705872 
	C252.686951,193.446182 249.796021,190.706131 247.370331,193.339874 
	C245.179474,195.718628 239.753357,196.922058 242.159531,202.748520 
	C245.531738,201.508804 248.587769,200.385330 252.315323,198.970581 
M246.772079,167.836639 
	C245.010681,167.145462 242.901993,166.661331 241.846878,168.391495 
	C240.823380,170.069763 240.608231,172.321182 242.358734,174.299484 
	C244.433502,172.471451 246.175095,170.786102 246.772079,167.836639 
z"/>
<path fill="#000000" opacity="1.000000" stroke="none" 
	d="
M227.428207,214.978302 
	C227.218170,210.257492 226.238586,205.839737 228.872833,201.664307 
	C230.638107,206.221008 230.535812,210.950607 229.648834,215.637360 
	C229.407608,216.912033 228.149261,216.444138 227.428207,214.978302 
z"/>
<path fill="#000000" opacity="1.000000" stroke="none" 
	d="
M227.225464,149.422806 
	C227.944260,146.314835 226.254730,143.126083 229.322128,139.773972 
	C230.930618,145.528381 230.112427,150.276871 229.887192,155.750458 
	C226.640762,153.820923 227.333527,151.678665 227.225464,149.422806 
z"/>
<path fill="#000000" opacity="1.000000" stroke="none" 
	d="
M227.102859,164.695923 
	C227.452408,163.119156 227.040649,161.544937 229.436981,160.962921 
	C230.545853,165.604660 230.762466,170.037506 229.125076,175.321121 
	C226.129532,171.685181 227.356705,168.260696 227.102859,164.695923 
z"/>
</svg>